0
SECTION
2
HEADER
9
$INSUNITS
70
4
9
$ACADVER
1
AC1014
9
$HANDSEED
5
FFFF
0
ENDSEC
0
SECTION
2
TABLES
0
TABLE
2
VPORT
5
8
100
AcDbSymbolTable
0
ENDTAB
0
TABLE
2
LTYPE
5
5
100
AcDbSymbolTable
0
LTYPE
5
14
100
AcDbSymbolTableRecord
100
AcDbLinetypeTableRecord
2
BYBLOCK
70
0
0
LTYPE
5
15
100
AcDbSymbolTableRecord
100
AcDbLinetypeTableRecord
2
BYLAYER
70
0
0
ENDTAB
0
TABLE
2
LAYER
5
2
100
AcDbSymbolTable
70
2
0
LAYER
5
50
100
AcDbSymbolTableRecord
100
AcDbLayerTableRecord
2
0
70
0
6
CONTINUOUS
0
ENDTAB
0
TABLE
2
STYLE
5
3
100
AcDbSymbolTable
70
1
0
STYLE
5
11
100
AcDbSymbolTableRecord
100
AcDbTextStyleTableRecord
2
STANDARD
70
0
0
ENDTAB
0
TABLE
2
VIEW
5
6
100
AcDbSymbolTable
70
0
0
ENDTAB
0
TABLE
2
UCS
5
7
100
AcDbSymbolTable
70
0
0
ENDTAB
0
TABLE
2
APPID
5
9
100
AcDbSymbolTable
70
2
0
APPID
5
12
100
AcDbSymbolTableRecord
100
AcDbRegAppTableRecord
2
ACAD
70
0
0
ENDTAB
0
TABLE
2
DIMSTYLE
5
A
100
AcDbSymbolTable
70
1
0
ENDTAB
0
TABLE
2
BLOCK_RECORD
5
1
100
AcDbSymbolTable
70
1
0
BLOCK_RECORD
5
1F
100
AcDbSymbolTableRecord
100
AcDbBlockTableRecord
2
*MODEL_SPACE
0
BLOCK_RECORD
5
1B
100
AcDbSymbolTableRecord
100
AcDbBlockTableRecord
2
*PAPER_SPACE
0
ENDTAB
0
ENDSEC
0
SECTION
2
BLOCKS
0
BLOCK
5
20
100
AcDbEntity
100
AcDbBlockBegin
2
*MODEL_SPACE
0
ENDBLK
5
21
100
AcDbEntity
100
AcDbBlockEnd
0
BLOCK
5
1C
100
AcDbEntity
100
AcDbBlockBegin
2
*PAPER_SPACE
0
ENDBLK
5
1D
100
AcDbEntity
100
AcDbBlockEnd
0
ENDSEC
0
SECTION
2
ENTITIES
0
CIRCLE
5
100
100
AcDbEntity
8
0
100
AcDbCircle
10
-42.545147854467288
20
21.546533626690373
30
0
40
1.6249999999999964
0
CIRCLE
5
101
100
AcDbEntity
8
0
100
AcDbCircle
10
36.624472628501287
20
-0.89038119118050929
30
0
40
1.6249999999999964
0
CIRCLE
5
102
100
AcDbEntity
8
0
100
AcDbCircle
10
11.953466213260757
20
68.545147854467373
30
0
40
1.6249999999999964
0
CIRCLE
5
103
100
AcDbEntity
8
0
100
AcDbCircle
10
-0.04791955896235045
20
56.546533786739374
30
0
40
1.6249999999999964
0
CIRCLE
5
104
100
AcDbEntity
8
0
100
AcDbCircle
10
32.109618808819434
20
15.468594784928262
30
0
40
1.6249999999999964
0
CIRCLE
5
105
100
AcDbEntity
8
0
100
AcDbCircle
10
-42.547919558962377
20
-2.4534662132607554
30
0
40
1.6249999999999964
0
CIRCLE
5
106
100
AcDbEntity
8
0
100
AcDbCircle
10
-30.546533786739268
20
9.5451478544672508
30
0
40
1.6250000000000009
0
CIRCLE
5
107
100
AcDbEntity
8
0
100
AcDbCircle
10
52.983448604610075
20
3.6244726285013407
30
0
40
1.6249999999999964
0
CIRCLE
5
108
100
AcDbEntity
8
0
100
AcDbCircle
10
-0.045147854467257886
20
80.54653362669049
30
0
40
1.6249999999999964
0
CIRCLE
5
109
100
AcDbEntity
8
0
100
AcDbCircle
10
-12.046533626690362
20
68.547919558962477
30
0
40
1.6250000000000009
0
CIRCLE
5
110
100
AcDbEntity
8
0
100
AcDbCircle
10
48.468594784928229
20
19.983448604610118
30
0
40
1.6250000000000053
0
CIRCLE
5
111
100
AcDbEntity
8
0
100
AcDbCircle
10
-54.54653362669039
20
9.5479195589623593
30
0
40
1.6249999999999964
0
CIRCLE
5
112
100
AcDbEntity
8
0
100
AcDbCircle
10
-11.667261889578045
20
11.667261889578038
30
0
40
1.5000000000000013
0
CIRCLE
5
113
100
AcDbEntity
8
0
100
AcDbCircle
10
-11.66726188957805
20
-11.66726188957805
30
0
40
1.5000000000000013
0
CIRCLE
5
114
100
AcDbEntity
8
0
100
AcDbCircle
10
11.66726188957804
20
11.66726188957804
30
0
40
1.5000000000000013
0
CIRCLE
5
115
100
AcDbEntity
8
0
100
AcDbCircle
10
11.66726188957804
20
-11.66726188957805
30
0
40
1.5000000000000013
0
ARC
5
116
100
AcDbEntity
8
0
100
AcDbCircle
10
-20.804051894546696
20
28.929953113470134
30
0
40
1.5000000000000022
100
AcDbArc
50
147.1173826058666
51
327.11738260586674
0
LINE
5
117
100
AcDbEntity
8
0
100
AcDbLine
10
-22.063728818800104
20
29.744332660428114
30
0
11
-18.806210630968177
21
34.783040357441756
31
0
0
ARC
5
118
100
AcDbEntity
8
0
100
AcDbCircle
10
-17.546533706714772
20
33.968660810483769
30
0
40
1.5000000000000016
100
AcDbArc
50
-32.882617394136048
51
147.11738260586631
0
LINE
5
119
100
AcDbEntity
8
0
100
AcDbLine
10
-16.286856782461403
20
33.154281263525732
30
0
11
-19.544374970293287
21
28.115573566512158
31
0
0
CIRCLE
5
120
100
AcDbEntity
8
0
100
AcDbCircle
10
29.54653370671473
20
55.546533706714726
30
0
40
1.7500000000000027
0
CIRCLE
5
121
100
AcDbEntity
8
0
100
AcDbCircle
10
-42.546533706714833
20
68.546533706714783
30
0
40
4.0000000000000036
0
CIRCLE
5
122
100
AcDbEntity
8
0
100
AcDbCircle
10
-29.546533706714818
20
55.546533706714825
30
0
40
1.5000000000000036
0
CIRCLE
5
123
100
AcDbEntity
8
0
100
AcDbCircle
10
-42.546533706714833
20
42.546533706714783
30
0
40
11.000000000000028
0
CIRCLE
5
124
100
AcDbEntity
8
0
100
AcDbCircle
10
-4.9494537817305774e-14
20
68.546533706714754
30
0
40
4.5
0
CIRCLE
5
125
100
AcDbEntity
8
0
100
AcDbCircle
10
55.546533706714726
20
55.546533706714726
30
0
40
1.749999999999998
0
CIRCLE
5
126
100
AcDbEntity
8
0
100
AcDbCircle
10
-55.546533706714825
20
29.546533706714744
30
0
40
1.5000000000000036
0
CIRCLE
5
127
100
AcDbEntity
8
0
100
AcDbCircle
10
42.546533706714726
20
68.546533706714726
30
0
40
4.0000000000000036
0
CIRCLE
5
128
100
AcDbEntity
8
0
100
AcDbCircle
10
-55.546533706714868
20
55.546533706714804
30
0
40
1.5000000000000036
0
CIRCLE
5
129
100
AcDbEntity
8
0
100
AcDbCircle
10
55.546533706714726
20
29.546533706714733
30
0
40
1.749999999999998
0
CIRCLE
5
130
100
AcDbEntity
8
0
100
AcDbCircle
10
5.7018123845670234e-14
20
31.999999999999993
30
0
40
3.9999999999999991
0
LWPOLYLINE
5
131
100
AcDbEntity
8
0
100
AcDbPolyline
90
4
70
1
43
0.0
10
22.063728818800019
20
29.744332660428114
42
-0.99999999999999989
10
19.544374970293287
20
28.11557356651204
10
16.286856782461332
20
33.154281263525718
42
-0.99999999999999989
10
18.806210630968135
20
34.783040357441678
0
CIRCLE
5
132
100
AcDbEntity
8
0
100
AcDbCircle
10
-29.546533706714797
20
29.546533706714769
30
0
40
1.5000000000000036
0
CIRCLE
5
133
100
AcDbEntity
8
0
100
AcDbCircle
10
42.546533706714726
20
42.546533706714726
30
0
40
10.999999999999996
0
CIRCLE
5
134
100
AcDbEntity
8
0
100
AcDbCircle
10
29.546533706714726
20
29.54653370671473
30
0
40
1.7500000000000027
0
CIRCLE
5
135
100
AcDbEntity
8
0
100
AcDbCircle
10
42.54653370671474
20
9.5465337067147225
30
0
40
4.4999999999999929
0
CIRCLE
5
136
100
AcDbEntity
8
0
100
AcDbCircle
10
-42.546533706714833
20
9.5465337067147846
30
0
40
4.5000000000000018
0
LWPOLYLINE
5
137
100
AcDbEntity
8
0
100
AcDbPolyline
90
12
70
1
43
0.0
10
70.386180142729117
20
21.334412494593575
10
54.477810750720877
20
0.45562461580568814
42
-0.11743054758565945
10
49.099595866404343
20
-3.94633019726224
10
10.921770266149311
20
-22.488106506628274
42
-0.22998959254408036
10
-10.921770266149341
20
-22.488106506628263
10
-49.099595866404464
20
-3.9463301972622089
42
-0.11743054758565889
10
-54.477810750720977
20
0.45562461580570979
10
-70.386180142729131
20
21.3344124945937
42
-0.57458284148281025
10
-47.285355885686968
20
77.224243613167417
10
-2.0309237909881066
20
83.408409380908765
42
-0.068010590263864523
10
2.0309237909880373
20
83.408409380908751
10
47.28535588568694
20
77.224243613167459
42
-0.57458284148280969
0
CIRCLE
5
138
100
AcDbEntity
8
0
100
AcDbCircle
10
-42.545147854467288
20
21.546533626690373
30
0
40
1.6249999999999964
0
CIRCLE
5
139
100
AcDbEntity
8
0
100
AcDbCircle
10
36.624472628501287
20
-0.89038119118050929
30
0
40
1.6249999999999964
0
CIRCLE
5
140
100
AcDbEntity
8
0
100
AcDbCircle
10
11.953466213260757
20
68.545147854467373
30
0
40
1.6249999999999964
0
CIRCLE
5
141
100
AcDbEntity
8
0
100
AcDbCircle
10
-0.04791955896235045
20
56.546533786739374
30
0
40
1.6249999999999964
0
CIRCLE
5
142
100
AcDbEntity
8
0
100
AcDbCircle
10
32.109618808819434
20
15.468594784928262
30
0
40
1.6249999999999964
0
CIRCLE
5
143
100
AcDbEntity
8
0
100
AcDbCircle
10
-42.547919558962377
20
-2.4534662132607554
30
0
40
1.6249999999999964
0
CIRCLE
5
144
100
AcDbEntity
8
0
100
AcDbCircle
10
-30.546533786739268
20
9.5451478544672508
30
0
40
1.6250000000000009
0
CIRCLE
5
145
100
AcDbEntity
8
0
100
AcDbCircle
10
52.983448604610075
20
3.6244726285013407
30
0
40
1.6249999999999964
0
CIRCLE
5
146
100
AcDbEntity
8
0
100
AcDbCircle
10
-0.045147854467257886
20
80.54653362669049
30
0
40
1.6249999999999964
0
CIRCLE
5
147
100
AcDbEntity
8
0
100
AcDbCircle
10
-12.046533626690362
20
68.547919558962477
30
0
40
1.6250000000000009
0
CIRCLE
5
148
100
AcDbEntity
8
0
100
AcDbCircle
10
48.468594784928229
20
19.983448604610118
30
0
40
1.6250000000000053
0
CIRCLE
5
149
100
AcDbEntity
8
0
100
AcDbCircle
10
-54.54653362669039
20
9.5479195589623593
30
0
40
1.6249999999999964
0
CIRCLE
5
150
100
AcDbEntity
8
0
100
AcDbCircle
10
-11.667261889578045
20
11.667261889578038
30
0
40
1.5000000000000013
0
CIRCLE
5
151
100
AcDbEntity
8
0
100
AcDbCircle
10
-11.66726188957805
20
-11.66726188957805
30
0
40
1.5000000000000013
0
CIRCLE
5
152
100
AcDbEntity
8
0
100
AcDbCircle
10
11.66726188957804
20
11.66726188957804
30
0
40
1.5000000000000013
0
CIRCLE
5
153
100
AcDbEntity
8
0
100
AcDbCircle
10
11.66726188957804
20
-11.66726188957805
30
0
40
1.5000000000000013
0
ARC
5
154
100
AcDbEntity
8
0
100
AcDbCircle
10
-20.804051894546696
20
28.92995311347013
30
0
40
1.5000000000000033
100
AcDbArc
50
147.11738260586631
51
327.11738260586418
0
LINE
5
155
100
AcDbEntity
8
0
100
AcDbLine
10
-19.544374970293322
20
28.115573566512097
30
0
11
-16.286856782461403
21
33.154281263525732
31
0
0
ARC
5
156
100
AcDbEntity
8
0
100
AcDbCircle
10
-17.546533706714776
20
33.968660810483769
30
0
40
1.5000000000000036
100
AcDbArc
50
-32.882617394135949
51
147.11738260586623
0
LINE
5
157
100
AcDbEntity
8
0
100
AcDbLine
10
-18.806210630968177
20
34.783040357441756
30
0
11
-22.063728818800101
21
29.744332660428118
31
0
0
CIRCLE
5
158
100
AcDbEntity
8
0
100
AcDbCircle
10
29.54653370671473
20
55.546533706714726
30
0
40
1.7500000000000027
0
CIRCLE
5
159
100
AcDbEntity
8
0
100
AcDbCircle
10
-42.546533706714833
20
68.546533706714783
30
0
40
4.0000000000000036
0
CIRCLE
5
160
100
AcDbEntity
8
0
100
AcDbCircle
10
-29.546533706714818
20
55.546533706714825
30
0
40
1.5000000000000036
0
CIRCLE
5
161
100
AcDbEntity
8
0
100
AcDbCircle
10
-42.546533706714833
20
42.546533706714783
30
0
40
11.000000000000028
0
CIRCLE
5
162
100
AcDbEntity
8
0
100
AcDbCircle
10
-4.9494537817305774e-14
20
68.546533706714754
30
0
40
4.5
0
CIRCLE
5
163
100
AcDbEntity
8
0
100
AcDbCircle
10
55.546533706714726
20
55.546533706714726
30
0
40
1.749999999999998
0
CIRCLE
5
164
100
AcDbEntity
8
0
100
AcDbCircle
10
-55.546533706714825
20
29.546533706714744
30
0
40
1.5000000000000036
0
CIRCLE
5
165
100
AcDbEntity
8
0
100
AcDbCircle
10
42.546533706714726
20
68.546533706714726
30
0
40
4.0000000000000036
0
CIRCLE
5
166
100
AcDbEntity
8
0
100
AcDbCircle
10
-55.546533706714868
20
55.546533706714804
30
0
40
1.5000000000000036
0
CIRCLE
5
167
100
AcDbEntity
8
0
100
AcDbCircle
10
55.546533706714726
20
29.546533706714733
30
0
40
1.749999999999998
0
CIRCLE
5
168
100
AcDbEntity
8
0
100
AcDbCircle
10
5.7018123845670234e-14
20
31.999999999999993
30
0
40
3.9999999999999991
0
LWPOLYLINE
5
169
100
AcDbEntity
8
0
100
AcDbPolyline
90
4
70
1
43
0.0
10
22.063728818800019
20
29.744332660428114
42
-0.99999999999999989
10
19.544374970293283
20
28.11557356651204
10
16.286856782461335
20
33.154281263525718
42
-0.99999999999999989
10
18.806210630968131
20
34.783040357441678
0
CIRCLE
5
170
100
AcDbEntity
8
0
100
AcDbCircle
10
-29.546533706714797
20
29.546533706714769
30
0
40
1.5000000000000036
0
CIRCLE
5
171
100
AcDbEntity
8
0
100
AcDbCircle
10
42.546533706714726
20
42.546533706714726
30
0
40
10.999999999999996
0
CIRCLE
5
172
100
AcDbEntity
8
0
100
AcDbCircle
10
29.546533706714726
20
29.54653370671473
30
0
40
1.7500000000000027
0
CIRCLE
5
173
100
AcDbEntity
8
0
100
AcDbCircle
10
42.54653370671474
20
9.5465337067147225
30
0
40
4.4999999999999929
0
CIRCLE
5
174
100
AcDbEntity
8
0
100
AcDbCircle
10
-42.546533706714833
20
9.5465337067147846
30
0
40
4.5000000000000018
0
LWPOLYLINE
5
175
100
AcDbEntity
8
0
100
AcDbPolyline
90
12
70
1
43
0.0
10
54.47781075072092
20
0.45562461580565206
10
70.386180142729117
20
21.334412494593575
42
0.57458284148280969
10
47.285355885686933
20
77.224243613167317
10
2.0309237909880311
20
83.408409380908722
42
0.068010590263864648
10
-2.0309237909881084
20
83.408409380908722
10
-47.285355885686975
20
77.224243613167403
42
0.57458284148281025
10
-70.386180142729202
20
21.334412494593636
10
-54.477810750720941
20
0.45562461580573199
42
0.11743054758565885
10
-49.099595866404442
20
-3.9463301972621689
10
-10.921770266149329
20
-22.48810650662827
42
0.22998959254408016
10
10.921770266149323
20
-22.488106506628263
10
49.099595866404343
20
-3.9463301972622391
42
0.11743054758565948
0
ENDSEC
0
SECTION
2
OBJECTS
0
DICTIONARY
5
C
100
AcDbDictionary
3
ACAD_GROUP
350
D
3
ACAD_MLINESTYLE
350
17
0
DICTIONARY
5
D
100
AcDbDictionary
0
DICTIONARY
5
1A
330
C
100
AcDbDictionary
0
DICTIONARY
5
17
100
AcDbDictionary
0
ENDSEC
0
EOF
