<?xml version="1.0" encoding="UTF-8" standalone="no"?>
<!-- Created with Inkscape (http://www.inkscape.org/) -->

<svg
   xmlns:dc="http://purl.org/dc/elements/1.1/"
   xmlns:cc="http://creativecommons.org/ns#"
   xmlns:rdf="http://www.w3.org/1999/02/22-rdf-syntax-ns#"
   xmlns:svg="http://www.w3.org/2000/svg"
   xmlns="http://www.w3.org/2000/svg"
   xmlns:sodipodi="http://sodipodi.sourceforge.net/DTD/sodipodi-0.dtd"
   xmlns:inkscape="http://www.inkscape.org/namespaces/inkscape"
   width="210mm"
   height="297mm"
   viewBox="0 0 744.09448819 1052.3622047"
   id="svg3517"
   version="1.1"
   inkscape:version="0.91 r13725"
   sodipodi:docname="sled_plate.svg">
  <defs
     id="defs3519">
    <marker
       style="overflow:visible"
       refY="0.0"
       refX="0.0"
       orient="auto"
       id="DistanceX">
      <path
         id="path3567"
         style="stroke:#000000; stroke-width:0.5"
         d="M 3,-3 L -3,3 M 0,-5 L  0,5" />
    </marker>
    <pattern
       y="0"
       x="0"
       width="8"
       patternUnits="userSpaceOnUse"
       id="Hatch"
       height="8">
      <path
         id="path3570"
         stroke-width="0.25"
         stroke="#000000"
         linecap="square"
         d="M8 4 l-4,4" />
      <path
         id="path3572"
         stroke-width="0.25"
         stroke="#000000"
         linecap="square"
         d="M6 2 l-4,4" />
      <path
         id="path3574"
         stroke-width="0.25"
         stroke="#000000"
         linecap="square"
         d="M4 0 l-4,4" />
    </pattern>
    <symbol
       id="*MODEL_SPACE" />
    <symbol
       id="*PAPER_SPACE" />
    <marker
       style="overflow:visible"
       refY="0.0"
       refX="0.0"
       orient="auto"
       id="DistanceX-8">
      <path
         id="path3671"
         style="stroke:#000000; stroke-width:0.5"
         d="M 3,-3 L -3,3 M 0,-5 L  0,5" />
    </marker>
    <pattern
       y="0"
       x="0"
       width="8"
       patternUnits="userSpaceOnUse"
       id="Hatch-7"
       height="8">
      <path
         id="path3674"
         stroke-width="0.25"
         stroke="#000000"
         linecap="square"
         d="M8 4 l-4,4" />
      <path
         id="path3676"
         stroke-width="0.25"
         stroke="#000000"
         linecap="square"
         d="M6 2 l-4,4" />
      <path
         id="path3678"
         stroke-width="0.25"
         stroke="#000000"
         linecap="square"
         d="M4 0 l-4,4" />
    </pattern>
    <symbol
       id="*MODEL_SPACE-5" />
    <symbol
       id="*PAPER_SPACE-2" />
    <marker
       style="overflow:visible"
       refY="0.0"
       refX="0.0"
       orient="auto"
       id="DistanceX-3">
      <path
         id="path3934"
         style="stroke:#000000; stroke-width:0.5"
         d="M 3,-3 L -3,3 M 0,-5 L  0,5" />
    </marker>
    <pattern
       y="0"
       x="0"
       width="8"
       patternUnits="userSpaceOnUse"
       id="Hatch-2"
       height="8">
      <path
         id="path3937"
         stroke-width="0.25"
         stroke="#000000"
         linecap="square"
         d="M8 4 l-4,4" />
      <path
         id="path3939"
         stroke-width="0.25"
         stroke="#000000"
         linecap="square"
         d="M6 2 l-4,4" />
      <path
         id="path3941"
         stroke-width="0.25"
         stroke="#000000"
         linecap="square"
         d="M4 0 l-4,4" />
    </pattern>
    <symbol
       id="*MODEL_SPACE-1" />
    <symbol
       id="*PAPER_SPACE-5" />
    <marker
       style="overflow:visible"
       refY="0.0"
       refX="0.0"
       orient="auto"
       id="DistanceX-1">
      <path
         id="path4077"
         style="stroke:#000000; stroke-width:0.5"
         d="M 3,-3 L -3,3 M 0,-5 L  0,5" />
    </marker>
    <pattern
       y="0"
       x="0"
       width="8"
       patternUnits="userSpaceOnUse"
       id="Hatch-9"
       height="8">
      <path
         id="path4080"
         stroke-width="0.25"
         stroke="#000000"
         linecap="square"
         d="M8 4 l-4,4" />
      <path
         id="path4082"
         stroke-width="0.25"
         stroke="#000000"
         linecap="square"
         d="M6 2 l-4,4" />
      <path
         id="path4084"
         stroke-width="0.25"
         stroke="#000000"
         linecap="square"
         d="M4 0 l-4,4" />
    </pattern>
    <symbol
       id="*MODEL_SPACE-19" />
    <symbol
       id="*PAPER_SPACE-24" />
    <marker
       style="overflow:visible"
       refY="0.0"
       refX="0.0"
       orient="auto"
       id="DistanceX-38">
      <path
         id="path4340"
         style="stroke:#000000; stroke-width:0.5"
         d="M 3,-3 L -3,3 M 0,-5 L  0,5" />
    </marker>
    <pattern
       y="0"
       x="0"
       width="8"
       patternUnits="userSpaceOnUse"
       id="Hatch-8"
       height="8">
      <path
         id="path4343"
         stroke-width="0.25"
         stroke="#000000"
         linecap="square"
         d="M8 4 l-4,4" />
      <path
         id="path4345"
         stroke-width="0.25"
         stroke="#000000"
         linecap="square"
         d="M6 2 l-4,4" />
      <path
         id="path4347"
         stroke-width="0.25"
         stroke="#000000"
         linecap="square"
         d="M4 0 l-4,4" />
    </pattern>
    <symbol
       id="*MODEL_SPACE-16" />
    <symbol
       id="*PAPER_SPACE-9" />
  </defs>
  <sodipodi:namedview
     id="base"
     pagecolor="#ffffff"
     bordercolor="#666666"
     borderopacity="1.0"
     inkscape:pageopacity="0.0"
     inkscape:pageshadow="2"
     inkscape:zoom="0.7"
     inkscape:cx="320.58095"
     inkscape:cy="643.88487"
     inkscape:document-units="px"
     inkscape:current-layer="layer1"
     showgrid="false"
     inkscape:window-width="1920"
     inkscape:window-height="1151"
     inkscape:window-x="0"
     inkscape:window-y="1"
     inkscape:window-maximized="1" />
  <metadata
     id="metadata3522">
    <rdf:RDF>
      <cc:Work
         rdf:about="">
        <dc:format>image/svg+xml</dc:format>
        <dc:type
           rdf:resource="http://purl.org/dc/dcmitype/StillImage" />
        <dc:title></dc:title>
      </cc:Work>
    </rdf:RDF>
  </metadata>
  <g
     inkscape:label="Layer 1"
     inkscape:groupmode="layer"
     id="layer1">
    <g
       id="g4625">
      <path
         sodipodi:nodetypes="ccccccccccc"
         inkscape:connector-curvature="0"
         d="m 46.977176,152.81899 35.840243,60.70295 71.379671,-41.39463 c 16.94067,0.90297 32.81906,-8.39701 40.26633,-23.56182 l 10.32429,-6.08001 -6.0033,-10.56199 c 1.02794,-17.07174 -8.52684,-33.206643 -23.67755,-40.440303 l -5.81163,-10.611685 -10.62876,6.480017 c -17.38508,-1.12816 -33.18917,8.709083 -40.24027,23.547601 l -71.454731,41.7836"
         style="fill:none;stroke:#ff0000"
         id="path4492" />
      <path
         id="path4114"
         style="fill:none;stroke:#000000"
         d="m 298.60046,151.27087 c -0.0561,-13.94303 -7.65653,-26.89599 -19.74131,-33.70276 L 91.15445,10.508352 C 74.570445,1.0489701 53.473527,6.4299694 43.446179,22.676864 -4.994576,101.1634 -6.1865459,199.97083 40.346721,279.6031 86.879985,359.23537 173.54747,406.70195 265.70577,403.02916 c 19.07697,-0.76027 34.12155,-16.49861 34.0216,-35.59047 z"
         inkscape:connector-curvature="0"
         sodipodi:nodetypes="ccccsccc" />
      <path
         id="path4120"
         style="fill:none;stroke:#ff0000"
         d="M 68.275085,54.593438 A 14.17323,14.17323 0 1 0 75.468242,27.174826 14.17323,14.17323 0 0 0 68.275085,54.593438 Z"
         inkscape:connector-curvature="0" />
      <path
         id="path4124"
         style="fill:none;stroke:#ff0000"
         d="m 263.58296,385.84358 a 14.17323,14.17323 0 1 0 7.19315,-27.41861 14.17323,14.17323 0 0 0 -7.19315,27.41861 z"
         inkscape:connector-curvature="0" />
      <path
         id="path4128"
         style="fill:none;stroke:#ff0000"
         d="m 67.342914,275.43547 a 14.17323,14.17323 0 1 0 7.193157,-27.41862 14.17323,14.17323 0 0 0 -7.193157,27.41862 z"
         inkscape:connector-curvature="0" />
      <path
         id="path4144"
         style="fill:none;stroke:#ff0000"
         d="m 118.66158,275.07773 35.84024,60.70295 71.37967,-41.39463 c 16.94068,0.90297 32.81906,-8.39702 40.26633,-23.56182 l 10.32429,-6.08002 -6.0033,-10.56199 c 1.02795,-17.07174 -8.52684,-33.20664 -23.67755,-40.4403 l -5.81163,-10.61168 -10.62876,6.48001 c -17.38508,-1.12816 -33.18917,8.70909 -40.24026,23.54759 l -71.45474,41.78362"
         inkscape:connector-curvature="0"
         sodipodi:nodetypes="ccccccccccc" />
      <path
         id="path4152"
         style="fill:none;stroke:#ff0000"
         d="m 256.0232,165.17977 a 14.17323,14.17323 0 1 0 7.19316,-27.41861 14.17323,14.17323 0 0 0 -7.19316,27.41861 z"
         inkscape:connector-curvature="0" />
      <path
         id="path4170"
         style="fill:none;stroke:#ff0000"
         d="m 111.55731,301.23497 a 7.0866145,7.0866145 0 1 0 3.59658,-13.7093 7.0866145,7.0866145 0 1 0 -3.59658,13.7093 z"
         inkscape:connector-curvature="0" />
      <path
         id="path4172"
         style="fill:none;stroke:#ff0000"
         d="m 133.00968,337.9463 a 7.086615,7.086615 0 1 0 3.59658,-13.7093 7.086615,7.086615 0 1 0 -3.59658,13.7093 z"
         inkscape:connector-curvature="0" />
      <path
         id="path4180"
         style="fill:none;stroke:#ff0000"
         d="m 258.40257,215.42563 a 7.086614,7.086614 0 1 0 3.59657,-13.70929 7.086614,7.086614 0 0 0 -3.59657,13.70929 z"
         inkscape:connector-curvature="0" />
      <path
         id="path4182"
         style="fill:none;stroke:#ff0000"
         d="m 279.85494,252.13697 a 7.086615,7.086615 0 1 0 3.59658,-13.70931 7.086615,7.086615 0 1 0 -3.59658,13.70931 z"
         inkscape:connector-curvature="0" />
      <path
         id="path4204"
         style="fill:none;stroke:#ff0000"
         d="m 61.501873,215.57522 a 7.086614,7.086614 0 1 0 3.596576,-13.7093 7.086614,7.086614 0 1 0 -3.596576,13.7093 z"
         inkscape:connector-curvature="0" />
      <path
         id="path4206"
         style="fill:none;stroke:#ff0000"
         d="m 40.049498,178.8639 a 7.086615,7.086615 0 1 0 3.596579,-13.70931 7.086615,7.086615 0 1 0 -3.596579,13.70931 z"
         inkscape:connector-curvature="0" />
      <path
         id="path4208"
         style="fill:none;stroke:#ff0000"
         d="m 186.89485,93.054578 a 7.086614,7.086614 0 1 0 3.59658,-13.709296 7.086614,7.086614 0 0 0 -3.59658,13.709296 z"
         inkscape:connector-curvature="0" />
      <path
         id="path4210"
         style="fill:none;stroke:#ff0000"
         d="m 208.34713,129.76589 a 7.086614,7.086614 0 1 0 3.59657,-13.7093 7.086614,7.086614 0 0 0 -3.59657,13.7093 z"
         inkscape:connector-curvature="0" />
      <circle
         style="opacity:1;fill:#00ff00;fill-opacity:0;fill-rule:nonzero;stroke:#ff0000;stroke-width:0.23436047;stroke-linecap:butt;stroke-miterlimit:10;stroke-dasharray:none;stroke-opacity:1"
         id="circle4617"
         cx="116.83716"
         cy="234.89136"
         r="7.0866141" />
      <circle
         r="7.0866141"
         cy="346.20389"
         cx="207.26936"
         id="circle4621"
         style="opacity:1;fill:#00ff00;fill-opacity:0;fill-rule:nonzero;stroke:#ff0000;stroke-width:0.23436047;stroke-linecap:butt;stroke-miterlimit:10;stroke-dasharray:none;stroke-opacity:1" />
      <circle
         r="7.0866141"
         cy="101.4592"
         cx="64.252289"
         id="circle4623"
         style="opacity:1;fill:#00ff00;fill-opacity:0;fill-rule:nonzero;stroke:#ff0000;stroke-width:0.23436047;stroke-linecap:butt;stroke-miterlimit:10;stroke-dasharray:none;stroke-opacity:1" />
    </g>
    <g
       id="g4645"
       transform="matrix(-0.49461104,-0.86911445,0.86911445,-0.49461104,340.49026,450.67047)">
      <path
         id="path4647"
         style="fill:none;stroke:#ff0000"
         d="m 46.977176,152.81899 35.840243,60.70295 71.379671,-41.39463 c 16.94067,0.90297 32.81906,-8.39701 40.26633,-23.56182 l 10.32429,-6.08001 -6.0033,-10.56199 c 1.02794,-17.07174 -8.52684,-33.206643 -23.67755,-40.440303 l -5.81163,-10.611685 -10.62876,6.480017 c -17.38508,-1.12816 -33.18917,8.709083 -40.24027,23.547601 l -71.454731,41.7836"
         inkscape:connector-curvature="0"
         sodipodi:nodetypes="ccccccccccc" />
      <path
         sodipodi:nodetypes="ccccsccc"
         inkscape:connector-curvature="0"
         d="m 298.60046,151.27087 c -0.0561,-13.94303 -7.65653,-26.89599 -19.74131,-33.70276 L 91.15445,10.508352 C 74.570445,1.0489701 53.473527,6.4299694 43.446179,22.676864 -4.994576,101.1634 -6.1865459,199.97083 40.346721,279.6031 86.879985,359.23537 173.54747,406.70195 265.70577,403.02916 c 19.07697,-0.76027 34.12155,-16.49861 34.0216,-35.59047 z"
         style="fill:none;stroke:#000000"
         id="path4649" />
      <path
         inkscape:connector-curvature="0"
         d="M 68.275085,54.593438 A 14.17323,14.17323 0 1 0 75.468242,27.174826 14.17323,14.17323 0 0 0 68.275085,54.593438 Z"
         style="fill:none;stroke:#ff0000"
         id="path4651" />
      <path
         inkscape:connector-curvature="0"
         d="m 263.58296,385.84358 a 14.17323,14.17323 0 1 0 7.19315,-27.41861 14.17323,14.17323 0 0 0 -7.19315,27.41861 z"
         style="fill:none;stroke:#ff0000"
         id="path4653" />
      <path
         inkscape:connector-curvature="0"
         d="m 67.342914,275.43547 a 14.173234,14.173234 0 1 0 7.193157,-27.41862 14.173234,14.173234 0 0 0 -7.193157,27.41862 z"
         style="fill:none;stroke:#ff0000"
         id="path4655" />
      <path
         sodipodi:nodetypes="ccccccccccc"
         inkscape:connector-curvature="0"
         d="m 118.66158,275.07773 35.84024,60.70295 71.37967,-41.39463 c 16.94068,0.90297 32.81906,-8.39702 40.26633,-23.56182 l 10.32429,-6.08002 -6.0033,-10.56199 c 1.02795,-17.07174 -8.52684,-33.20664 -23.67755,-40.4403 l -5.81163,-10.61168 -10.62876,6.48001 c -17.38508,-1.12816 -33.18917,8.70909 -40.24026,23.54759 l -71.45474,41.78362"
         style="fill:none;stroke:#ff0000"
         id="path4657" />
      <path
         inkscape:connector-curvature="0"
         d="m 256.0232,165.17977 a 14.17323,14.17323 0 1 0 7.19316,-27.41861 14.17323,14.17323 0 0 0 -7.19316,27.41861 z"
         style="fill:none;stroke:#ff0000"
         id="path4659" />
      <path
         inkscape:connector-curvature="0"
         d="m 111.55731,301.23497 a 7.0866145,7.0866145 0 1 0 3.59658,-13.7093 7.0866145,7.0866145 0 1 0 -3.59658,13.7093 z"
         style="fill:none;stroke:#ff0000"
         id="path4661" />
      <path
         inkscape:connector-curvature="0"
         d="m 133.00968,337.9463 a 7.086615,7.086615 0 1 0 3.59658,-13.7093 7.086615,7.086615 0 1 0 -3.59658,13.7093 z"
         style="fill:none;stroke:#ff0000"
         id="path4663" />
      <path
         inkscape:connector-curvature="0"
         d="m 258.40257,215.42563 a 7.086614,7.086614 0 1 0 3.59657,-13.70929 7.086614,7.086614 0 0 0 -3.59657,13.70929 z"
         style="fill:none;stroke:#ff0000"
         id="path4665" />
      <path
         inkscape:connector-curvature="0"
         d="m 279.85494,252.13697 a 7.0866171,7.0866171 0 1 0 3.59658,-13.70931 7.0866171,7.0866171 0 1 0 -3.59658,13.70931 z"
         style="fill:none;stroke:#ff0000"
         id="path4667" />
      <path
         inkscape:connector-curvature="0"
         d="m 61.501873,215.57522 a 7.086614,7.086614 0 1 0 3.596576,-13.7093 7.086614,7.086614 0 1 0 -3.596576,13.7093 z"
         style="fill:none;stroke:#ff0000"
         id="path4669" />
      <path
         inkscape:connector-curvature="0"
         d="m 40.049498,178.8639 a 7.086617,7.086617 0 1 0 3.596579,-13.70931 7.086617,7.086617 0 1 0 -3.596579,13.70931 z"
         style="fill:none;stroke:#ff0000"
         id="path4671" />
      <path
         inkscape:connector-curvature="0"
         d="m 186.89485,93.054578 a 7.086614,7.086614 0 1 0 3.59658,-13.709296 7.086614,7.086614 0 0 0 -3.59658,13.709296 z"
         style="fill:none;stroke:#ff0000"
         id="path4673" />
      <path
         inkscape:connector-curvature="0"
         d="m 208.34713,129.76589 a 7.086614,7.086614 0 1 0 3.59657,-13.7093 7.086614,7.086614 0 0 0 -3.59657,13.7093 z"
         style="fill:none;stroke:#ff0000"
         id="path4675" />
      <circle
         r="7.0866141"
         cy="234.89136"
         cx="116.83716"
         id="circle4677"
         style="opacity:1;fill:#00ff00;fill-opacity:0;fill-rule:nonzero;stroke:#ff0000;stroke-width:0.23436047;stroke-linecap:butt;stroke-miterlimit:10;stroke-dasharray:none;stroke-opacity:1" />
      <circle
         style="opacity:1;fill:#00ff00;fill-opacity:0;fill-rule:nonzero;stroke:#ff0000;stroke-width:0.23436047;stroke-linecap:butt;stroke-miterlimit:10;stroke-dasharray:none;stroke-opacity:1"
         id="circle4679"
         cx="207.26936"
         cy="346.20389"
         r="7.0866141" />
      <circle
         style="opacity:1;fill:#00ff00;fill-opacity:0;fill-rule:nonzero;stroke:#ff0000;stroke-width:0.23436047;stroke-linecap:butt;stroke-miterlimit:10;stroke-dasharray:none;stroke-opacity:1"
         id="circle4681"
         cx="64.252289"
         cy="101.4592"
         r="7.0866141" />
    </g>
  </g>
</svg>
