<?xml version="1.0" encoding="UTF-8" standalone="no"?>
<!-- Created with Inkscape (http://www.inkscape.org/) -->

<svg
   xmlns:dc="http://purl.org/dc/elements/1.1/"
   xmlns:cc="http://creativecommons.org/ns#"
   xmlns:rdf="http://www.w3.org/1999/02/22-rdf-syntax-ns#"
   xmlns:svg="http://www.w3.org/2000/svg"
   xmlns="http://www.w3.org/2000/svg"
   xmlns:sodipodi="http://sodipodi.sourceforge.net/DTD/sodipodi-0.dtd"
   xmlns:inkscape="http://www.inkscape.org/namespaces/inkscape"
   width="210mm"
   height="297mm"
   viewBox="0 0 744.09448819 1052.3622047"
   id="svg3517"
   version="1.1"
   inkscape:version="0.91 r13725"
   sodipodi:docname="sled_plate.svg">
  <defs
     id="defs3519">
    <marker
       style="overflow:visible"
       refY="0.0"
       refX="0.0"
       orient="auto"
       id="DistanceX">
      <path
         id="path3567"
         style="stroke:#000000; stroke-width:0.5"
         d="M 3,-3 L -3,3 M 0,-5 L  0,5" />
    </marker>
    <pattern
       y="0"
       x="0"
       width="8"
       patternUnits="userSpaceOnUse"
       id="Hatch"
       height="8">
      <path
         id="path3570"
         stroke-width="0.25"
         stroke="#000000"
         linecap="square"
         d="M8 4 l-4,4" />
      <path
         id="path3572"
         stroke-width="0.25"
         stroke="#000000"
         linecap="square"
         d="M6 2 l-4,4" />
      <path
         id="path3574"
         stroke-width="0.25"
         stroke="#000000"
         linecap="square"
         d="M4 0 l-4,4" />
    </pattern>
    <symbol
       id="*MODEL_SPACE" />
    <symbol
       id="*PAPER_SPACE" />
    <marker
       style="overflow:visible"
       refY="0.0"
       refX="0.0"
       orient="auto"
       id="DistanceX-8">
      <path
         id="path3671"
         style="stroke:#000000; stroke-width:0.5"
         d="M 3,-3 L -3,3 M 0,-5 L  0,5" />
    </marker>
    <pattern
       y="0"
       x="0"
       width="8"
       patternUnits="userSpaceOnUse"
       id="Hatch-7"
       height="8">
      <path
         id="path3674"
         stroke-width="0.25"
         stroke="#000000"
         linecap="square"
         d="M8 4 l-4,4" />
      <path
         id="path3676"
         stroke-width="0.25"
         stroke="#000000"
         linecap="square"
         d="M6 2 l-4,4" />
      <path
         id="path3678"
         stroke-width="0.25"
         stroke="#000000"
         linecap="square"
         d="M4 0 l-4,4" />
    </pattern>
    <symbol
       id="*MODEL_SPACE-5" />
    <symbol
       id="*PAPER_SPACE-2" />
    <marker
       style="overflow:visible"
       refY="0.0"
       refX="0.0"
       orient="auto"
       id="DistanceX-3">
      <path
         id="path3934"
         style="stroke:#000000; stroke-width:0.5"
         d="M 3,-3 L -3,3 M 0,-5 L  0,5" />
    </marker>
    <pattern
       y="0"
       x="0"
       width="8"
       patternUnits="userSpaceOnUse"
       id="Hatch-2"
       height="8">
      <path
         id="path3937"
         stroke-width="0.25"
         stroke="#000000"
         linecap="square"
         d="M8 4 l-4,4" />
      <path
         id="path3939"
         stroke-width="0.25"
         stroke="#000000"
         linecap="square"
         d="M6 2 l-4,4" />
      <path
         id="path3941"
         stroke-width="0.25"
         stroke="#000000"
         linecap="square"
         d="M4 0 l-4,4" />
    </pattern>
    <symbol
       id="*MODEL_SPACE-1" />
    <symbol
       id="*PAPER_SPACE-5" />
    <marker
       style="overflow:visible"
       refY="0.0"
       refX="0.0"
       orient="auto"
       id="DistanceX-1">
      <path
         id="path4077"
         style="stroke:#000000; stroke-width:0.5"
         d="M 3,-3 L -3,3 M 0,-5 L  0,5" />
    </marker>
    <pattern
       y="0"
       x="0"
       width="8"
       patternUnits="userSpaceOnUse"
       id="Hatch-9"
       height="8">
      <path
         id="path4080"
         stroke-width="0.25"
         stroke="#000000"
         linecap="square"
         d="M8 4 l-4,4" />
      <path
         id="path4082"
         stroke-width="0.25"
         stroke="#000000"
         linecap="square"
         d="M6 2 l-4,4" />
      <path
         id="path4084"
         stroke-width="0.25"
         stroke="#000000"
         linecap="square"
         d="M4 0 l-4,4" />
    </pattern>
    <symbol
       id="*MODEL_SPACE-19" />
    <symbol
       id="*PAPER_SPACE-24" />
    <marker
       style="overflow:visible"
       refY="0.0"
       refX="0.0"
       orient="auto"
       id="DistanceX-38">
      <path
         id="path4340"
         style="stroke:#000000; stroke-width:0.5"
         d="M 3,-3 L -3,3 M 0,-5 L  0,5" />
    </marker>
    <pattern
       y="0"
       x="0"
       width="8"
       patternUnits="userSpaceOnUse"
       id="Hatch-8"
       height="8">
      <path
         id="path4343"
         stroke-width="0.25"
         stroke="#000000"
         linecap="square"
         d="M8 4 l-4,4" />
      <path
         id="path4345"
         stroke-width="0.25"
         stroke="#000000"
         linecap="square"
         d="M6 2 l-4,4" />
      <path
         id="path4347"
         stroke-width="0.25"
         stroke="#000000"
         linecap="square"
         d="M4 0 l-4,4" />
    </pattern>
    <symbol
       id="*MODEL_SPACE-16" />
    <symbol
       id="*PAPER_SPACE-9" />
  </defs>
  <sodipodi:namedview
     id="base"
     pagecolor="#ffffff"
     bordercolor="#666666"
     borderopacity="1.0"
     inkscape:pageopacity="0.0"
     inkscape:pageshadow="2"
     inkscape:zoom="0.70710678"
     inkscape:cx="815.57971"
     inkscape:cy="634.63212"
     inkscape:document-units="mm"
     inkscape:current-layer="layer1"
     showgrid="false"
     inkscape:window-width="1920"
     inkscape:window-height="1151"
     inkscape:window-x="0"
     inkscape:window-y="1"
     inkscape:window-maximized="1"
     showguides="true"
     inkscape:guide-bbox="true">
    <sodipodi:guide
       position="339.28572,797.14287"
       orientation="0,1"
       id="guide4702" />
    <sodipodi:guide
       position="104.35268,795.80359"
       orientation="1,0"
       id="guide4710" />
    <sodipodi:guide
       position="246.07031,795.10939"
       orientation="1,0"
       id="guide4731" />
    <sodipodi:guide
       position="436.99199,963.78656"
       orientation="0,1"
       id="guide4737" />
    <sodipodi:guide
       position="203,777.50001"
       orientation="0,1"
       id="guide4739" />
    <sodipodi:guide
       position="265.96054,767.7412"
       orientation="1,0"
       id="guide4801" />
    <sodipodi:guide
       position="228.5,765.50001"
       orientation="1,0"
       id="guide4803" />
    <sodipodi:guide
       position="121.75,751.25001"
       orientation="1,0"
       id="guide4823" />
    <sodipodi:guide
       position="87.25,757.25001"
       orientation="1,0"
       id="guide4825" />
  </sodipodi:namedview>
  <metadata
     id="metadata3522">
    <rdf:RDF>
      <cc:Work
         rdf:about="">
        <dc:format>image/svg+xml</dc:format>
        <dc:type
           rdf:resource="http://purl.org/dc/dcmitype/StillImage" />
        <dc:title></dc:title>
      </cc:Work>
    </rdf:RDF>
  </metadata>
  <g
     inkscape:label="Layer 1"
     inkscape:groupmode="layer"
     id="layer1">
    <g
       id="g4827">
      <path
         id="path4492"
         d="m 103.08008,89.076172 0,15.947268 c -7.850522,0.20699 -15.618492,2.57853 -22.271486,7.09375 l -12.09375,-0.33985 0.230468,12.44727 c -9.748877,14.4386 -9.235049,33.04643 0.01563,46.62305 l 0.570312,84.82617 33.548826,-0.12695 0,19.36523 2.5,0 0,-19.375 34.5039,-0.13086 -0.21093,-84.5332 c 9.33016,-14.16861 9.31671,-32.57099 -0.0156,-46.6543 l -0.0371,-11.98047 -12.14843,-0.15039 c -6.68701,-4.4698 -14.37668,-6.8135 -22.0918,-7.0625 l 0,-15.949218 -2.5,0 z"
         style="fill:none;stroke:#ff0000"
         inkscape:connector-curvature="0" />
      <path
         id="path4114"
         style="fill:none;stroke:#000000"
         d="m 194.7548,35.685941 c -12.06493,-6.989195 -27.08309,-6.965863 -39.05886,0.03091 L -31.467937,143.71931 c -16.536641,9.54194 -22.539871,30.4703 -13.575622,47.32709 43.3050616,81.43289 128.000972,132.33408 220.232439,132.35699 92.23146,0.0229 176.95263,-50.83624 220.29813,-132.24759 8.97262,-16.85233 2.97979,-37.78367 -13.5521,-47.33383 z"
         inkscape:connector-curvature="0"
         sodipodi:nodetypes="ccccsccc" />
      <path
         id="path4120"
         style="fill:none;stroke:#ff0000"
         d="M -4.9587428,185.72196 A 14.17323,14.17323 0 1 0 -24.99774,165.67301 14.17323,14.17323 0 1 0 -4.9587428,185.72196 Z"
         inkscape:connector-curvature="0" />
      <path
         id="path4124"
         style="fill:none;stroke:#ff0000"
         d="m 379.57973,184.31408 a 14.17323,14.17323 0 1 0 -20.03899,-20.04894 14.17323,14.17323 0 0 0 20.03899,20.04894 z"
         inkscape:connector-curvature="0" />
      <path
         id="path4128"
         style="fill:none;stroke:#ff0000"
         d="m 185.21718,297.99479 a 14.173234,14.173234 0 1 0 -20.039,-20.04895 14.173234,14.173234 0 0 0 20.039,20.04895 z"
         inkscape:connector-curvature="0" />
      <path
         id="path4144"
         d="m 244.83594,88.826172 0,16.023438 c -7.86115,0.2015 -15.64092,2.57255 -22.30274,7.09375 l -12.09375,-0.33984 0.23047,12.44726 c -9.74887,14.4386 -9.23502,33.04645 0.0156,46.62305 l -0.33789,85.49609 34.48828,-0.13086 0,18.37305 2.5,0 0,-18.38281 33.5664,-0.12696 0.69532,-85.20312 c 9.33017,-14.16863 9.3167,-32.57098 -0.0156,-46.6543 l -0.0371,-11.98242 -12.14844,-0.14844 c -6.67797,-4.46377 -14.35591,-6.80623 -22.06054,-7.06054 l 0,-16.027348 -2.5,0 z"
         style="fill:none;stroke:#ff0000"
         inkscape:connector-curvature="0" />
      <path
         id="path4152"
         style="fill:none;stroke:#ff0000"
         d="M 185.27143,79.462035 A 14.17323,14.17323 0 1 0 165.23244,59.413084 14.17323,14.17323 0 0 0 185.27143,79.462035 Z"
         inkscape:connector-curvature="0" />
      <path
         id="path4170"
         style="fill:none;stroke:#ff0000"
         d="m 233.55532,272.64401 a 7.0866145,7.0866145 0 1 0 -10.01949,-10.02448 7.0866145,7.0866145 0 1 0 10.01949,10.02448 z"
         inkscape:connector-curvature="0" />
      <path
         id="path4172"
         style="fill:none;stroke:#ff0000"
         d="m 268.99193,272.80603 a 7.086615,7.086615 0 1 0 -10.01949,-10.02447 7.086615,7.086615 0 1 0 10.01949,10.02447 z"
         inkscape:connector-curvature="0" />
      <path
         id="path4180"
         style="fill:none;stroke:#ff0000"
         d="M 233.34817,102.76916 A 7.086614,7.086614 0 1 0 223.32868,92.744702 7.086614,7.086614 0 0 0 233.34817,102.76916 Z"
         inkscape:connector-curvature="0" />
      <path
         id="path4182"
         style="fill:none;stroke:#ff0000"
         d="m 270.86789,102.7797 a 7.086618,7.086618 0 1 0 -10.0195,-10.024482 7.086618,7.086618 0 1 0 10.0195,10.024482 z"
         inkscape:connector-curvature="0" />
      <path
         id="path4204"
         style="fill:none;stroke:#ff0000"
         d="m 126.90078,272.23023 a 7.086614,7.086614 0 1 0 -10.0195,-10.02447 7.086614,7.086614 0 1 0 10.0195,10.02447 z"
         inkscape:connector-curvature="0" />
      <path
         id="path4206"
         style="fill:none;stroke:#ff0000"
         d="M 92.17459,272.66107 A 7.0866177,7.0866177 0 1 0 82.155089,262.63659 7.0866177,7.0866177 0 0 0 92.17459,272.66107 Z"
         inkscape:connector-curvature="0" />
      <path
         id="path4208"
         style="fill:none;stroke:#ff0000"
         d="M 92.115937,102.73393 A 7.086614,7.086614 0 1 0 82.096447,92.709463 7.086614,7.086614 0 0 0 92.115937,102.73393 Z"
         inkscape:connector-curvature="0" />
      <path
         id="path4210"
         style="fill:none;stroke:#ff0000"
         d="m 126.63559,102.74453 a 7.086614,7.086614 0 1 0 -10.0195,-10.024463 7.086614,7.086614 0 0 0 10.0195,10.024463 z"
         inkscape:connector-curvature="0" />
      <circle
         transform="matrix(0.50474142,-0.86327058,0.86327058,0.50474142,0,0)"
         style="opacity:1;fill:#00ff00;fill-opacity:0;fill-rule:nonzero;stroke:#ff0000;stroke-width:0.23436047;stroke-linecap:butt;stroke-miterlimit:10;stroke-dasharray:none;stroke-opacity:1"
         id="circle4617"
         cx="-114.26911"
         cy="269.75876"
         r="7.0866141" />
      <circle
         transform="matrix(0.50474142,-0.86327058,0.86327058,0.50474142,0,0)"
         r="7.0866141"
         cy="381.07129"
         cx="-23.836906"
         id="circle4621"
         style="opacity:1;fill:#00ff00;fill-opacity:0;fill-rule:nonzero;stroke:#ff0000;stroke-width:0.23436047;stroke-linecap:butt;stroke-miterlimit:10;stroke-dasharray:none;stroke-opacity:1" />
      <circle
         transform="matrix(0.50474142,-0.86327058,0.86327058,0.50474142,0,0)"
         r="7.0866141"
         cy="136.32658"
         cx="-166.85399"
         id="circle4623"
         style="opacity:1;fill:#00ff00;fill-opacity:0;fill-rule:nonzero;stroke:#ff0000;stroke-width:0.23436047;stroke-linecap:butt;stroke-miterlimit:10;stroke-dasharray:none;stroke-opacity:1" />
    </g>
  </g>
</svg>
