0
SECTION
2
HEADER
9
$INSUNITS
70
4
9
$ACADVER
1
AC1014
9
$HANDSEED
5
FFFF
0
ENDSEC
0
SECTION
2
TABLES
0
TABLE
2
VPORT
5
8
100
AcDbSymbolTable
0
ENDTAB
0
TABLE
2
LTYPE
5
5
100
AcDbSymbolTable
0
LTYPE
5
14
100
AcDbSymbolTableRecord
100
AcDbLinetypeTableRecord
2
BYBLOCK
70
0
0
LTYPE
5
15
100
AcDbSymbolTableRecord
100
AcDbLinetypeTableRecord
2
BYLAYER
70
0
0
ENDTAB
0
TABLE
2
LAYER
5
2
100
AcDbSymbolTable
70
2
0
LAYER
5
50
100
AcDbSymbolTableRecord
100
AcDbLayerTableRecord
2
0
70
0
6
CONTINUOUS
0
ENDTAB
0
TABLE
2
STYLE
5
3
100
AcDbSymbolTable
70
1
0
STYLE
5
11
100
AcDbSymbolTableRecord
100
AcDbTextStyleTableRecord
2
STANDARD
70
0
0
ENDTAB
0
TABLE
2
VIEW
5
6
100
AcDbSymbolTable
70
0
0
ENDTAB
0
TABLE
2
UCS
5
7
100
AcDbSymbolTable
70
0
0
ENDTAB
0
TABLE
2
APPID
5
9
100
AcDbSymbolTable
70
2
0
APPID
5
12
100
AcDbSymbolTableRecord
100
AcDbRegAppTableRecord
2
ACAD
70
0
0
ENDTAB
0
TABLE
2
DIMSTYLE
5
A
100
AcDbSymbolTable
70
1
0
ENDTAB
0
TABLE
2
BLOCK_RECORD
5
1
100
AcDbSymbolTable
70
1
0
BLOCK_RECORD
5
1F
100
AcDbSymbolTableRecord
100
AcDbBlockTableRecord
2
*MODEL_SPACE
0
BLOCK_RECORD
5
1B
100
AcDbSymbolTableRecord
100
AcDbBlockTableRecord
2
*PAPER_SPACE
0
ENDTAB
0
ENDSEC
0
SECTION
2
BLOCKS
0
BLOCK
5
20
100
AcDbEntity
100
AcDbBlockBegin
2
*MODEL_SPACE
0
ENDBLK
5
21
100
AcDbEntity
100
AcDbBlockEnd
0
BLOCK
5
1C
100
AcDbEntity
100
AcDbBlockBegin
2
*PAPER_SPACE
0
ENDBLK
5
1D
100
AcDbEntity
100
AcDbBlockEnd
0
ENDSEC
0
SECTION
2
ENTITIES
0
LWPOLYLINE
5
100
100
AcDbEntity
8
0
100
AcDbPolyline
90
6
70
1
43
0.0
10
14.649292222786423
20
10.625184089179731
10
73.579903025307971
20
26.41559366318819
42
-0.40411633940967945
10
85.732046525698777
20
19.677089082060352
42
-0.60064977236757666
10
-2.1807873631461998
20
-68.235744806784652
42
-0.40411633940968028
10
-8.9192919442740362
20
-56.083601306393888
10
6.8711176297344068
20
2.8470094961277148
42
-0.26794919243112264
0
CIRCLE
5
101
100
AcDbEntity
8
0
100
AcDbCircle
10
61.106973601172463
20
-43.610671882258316
30
-3.6082248300317588e-15
40
4.0000000000000036
0
CIRCLE
5
102
100
AcDbEntity
8
0
100
AcDbCircle
10
77.192680922132809
20
17.866823801916389
30
-3.6082248300317588e-15
40
4.0000000000000036
0
CIRCLE
5
103
100
AcDbEntity
8
0
100
AcDbCircle
10
17.496301718914165
20
0
30
8.3266726846886741e-16
40
4
0
CIRCLE
5
104
100
AcDbEntity
8
0
100
AcDbCircle
10
0.75378447255796566
20
-59.172106446247099
30
-3.6082248300317588e-15
40
3.9999999999999991
0
LWPOLYLINE
5
105
100
AcDbEntity
8
0
100
AcDbPolyline
90
4
70
1
43
0.0
10
67.336917932082542
20
-0.34823265000332726
10
74.407985743947989
20
-7.4193004618688354
10
81.479053555813465
20
-0.34823265000340053
10
74.407985743948018
20
6.7228351618621058
0
LINE
5
106
100
AcDbEntity
8
0
100
AcDbLine
10
35.163559388094441
20
-1.4088928217831942
30
0
11
61.326510291996655
21
-27.57184372568554
31
8.3266726846886741e-16
0
LINE
5
107
100
AcDbEntity
8
0
100
AcDbLine
10
60.265850120216925
20
-28.63250389746522
30
0
11
34.102899216314626
21
-2.4695529935630223
31
0
0
LINE
5
108
100
AcDbEntity
8
0
100
AcDbLine
10
73.347325572167989
20
-15.551028445514245
30
-1.3877787807814457e-15
11
61.326510291996655
21
-27.57184372568554
31
8.3266726846886741e-16
0
LWPOLYLINE
5
109
100
AcDbEntity
8
0
100
AcDbPolyline
90
4
70
1
43
0.0
10
50.497826323427134
20
-40.077683536272687
10
57.568894135292652
20
-33.006615724407212
10
50.497826323427198
20
-25.935547912541704
10
43.426758511561694
20
-33.00661572440719
0
LWPOLYLINE
5
110
100
AcDbEntity
8
0
100
AcDbPolyline
90
4
70
1
43
0.0
10
17.838264494371106
20
-63.989021711445716
10
24.910511060889256
20
-56.916775144927612
10
17.839443249023802
20
-49.845707333062109
10
10.767196682505659
20
-56.917953899580233
0
LINE
5
111
100
AcDbEntity
8
0
100
AcDbLine
10
48.245034840045605
20
11.67258263016798
30
0
11
74.407985743947876
21
-14.490368273734241
31
0
0
LINE
5
112
100
AcDbEntity
8
0
100
AcDbLine
10
45.063054324706059
20
-43.835299692976392
30
-3.6082248300317588e-15
11
33.042239044534753
21
-55.856114973147712
31
-3.6082248300317588e-15
0
CIRCLE
5
113
100
AcDbEntity
8
0
100
AcDbCircle
10
75.46864591572772
20
-21.207882695006433
30
-2.7755575615628914e-16
40
2.0000000000000115
0
CIRCLE
5
114
100
AcDbEntity
8
0
100
AcDbCircle
10
66.983364541489166
20
-29.693164069245004
30
-2.7755575615628914e-16
40
1.9999999999999938
0
CIRCLE
5
115
100
AcDbEntity
8
0
100
AcDbCircle
10
41.527520418773392
20
12.733242801947835
30
-2.7755575615628914e-16
40
2.0000000000000115
0
CIRCLE
5
116
100
AcDbEntity
8
0
100
AcDbCircle
10
33.042239044534831
20
4.2479614277092637
30
-2.7755575615628914e-16
40
1.9999999999999938
0
CIRCLE
5
117
100
AcDbEntity
8
0
100
AcDbCircle
10
33.042239044534831
20
4.2479614277092637
30
-2.7755575615628914e-16
40
1.9999999999999931
0
CIRCLE
5
118
100
AcDbEntity
8
0
100
AcDbCircle
10
41.527520418773392
20
12.733242801947835
30
-2.7755575615628914e-16
40
1.9867714612851612
0
CIRCLE
5
119
100
AcDbEntity
8
0
100
AcDbCircle
10
41.527520418773342
20
12.733242801947712
30
-3.6082248300317588e-15
40
1.9867714612852436
0
CIRCLE
5
120
100
AcDbEntity
8
0
100
AcDbCircle
10
75.46864591572772
20
-21.207882695006433
30
-2.7755575615628914e-16
40
1.999999999999772
0
CIRCLE
5
121
100
AcDbEntity
8
0
100
AcDbCircle
10
66.983364541489166
20
-29.693164069245004
30
-2.7755575615628914e-16
40
1.9999999999997837
0
LINE
5
122
100
AcDbEntity
8
0
100
AcDbLine
10
74.407985743948018
20
-14.490368273734067
30
8.3266726846886741e-16
11
48.245034840045747
21
11.672582630168154
31
8.3266726846886741e-16
0
CIRCLE
5
123
100
AcDbEntity
8
0
100
AcDbCircle
10
47.184374668265754
20
-1.4088928217831764
30
-2.7755575615628914e-16
40
11.999999999999995
0
LINE
5
124
100
AcDbEntity
8
0
100
AcDbLine
10
48.245034840045619
20
11.672582630167998
30
-2.7755575615628914e-16
11
42.941733981146484
21
16.975883489067119
31
-2.7755575615628914e-16
0
CIRCLE
5
125
100
AcDbEntity
8
0
100
AcDbCircle
10
33.042239044534824
20
4.2479614277092459
30
-2.7755575615628914e-16
40
1.9999999999999938
0
LWPOLYLINE
5
126
100
AcDbEntity
8
0
100
AcDbPolyline
90
8
70
1
43
0.0
10
40.113306856400293
20
14.147456364320924
10
31.628025482161739
20
5.6621749900823382
10
28.79959835741554
20
2.8337478653361625
10
34.10289921631464
20
-2.4695529935629938
42
-0.4142135623730952
10
34.102899216314633
20
-0.34823265000335724
10
46.123714496485988
20
11.672582630167996
42
-0.4142135623730957
10
48.245034840045619
20
11.672582630168009
10
42.941733981146484
20
16.975883489067115
0
CIRCLE
5
127
100
AcDbEntity
8
0
100
AcDbCircle
10
41.527520418773385
20
12.733242801947817
30
-2.7755575615628914e-16
40
2.0000000000000115
0
CIRCLE
5
128
100
AcDbEntity
8
0
100
AcDbCircle
10
75.468645915727706
20
-21.207882695006433
30
-2.7755575615628914e-16
40
2.0000000000000115
0
LWPOLYLINE
5
129
100
AcDbEntity
8
0
100
AcDbPolyline
90
8
70
1
43
0.0
10
68.39757810386223
20
-31.107377631618075
10
76.882859356250336
20
-22.622096379229983
10
79.711286602846997
20
-19.793669132633308
10
74.40798574394789
20
-14.490368273734212
42
-0.41421356237310114
10
74.407985743947876
20
-16.611688617293847
10
62.387170463776556
20
-28.63250389746517
42
-0.41421356237309442
10
60.265850120216946
20
-28.632503897465181
10
65.56915097911606
20
-33.93580475636427
0
CIRCLE
5
130
100
AcDbEntity
8
0
100
AcDbCircle
10
66.983364541489152
20
-29.693164069245004
30
-2.7755575615628914e-16
40
1.9999999999999938
0
LINE
5
131
100
AcDbEntity
8
0
100
AcDbLine
10
34.102899216314746
20
-2.4695529935628535
30
8.3266726846886741e-16
11
60.265850120217067
21
-28.632503897465039
31
8.3266726846886741e-16
0
ENDSEC
0
SECTION
2
OBJECTS
0
DICTIONARY
5
C
100
AcDbDictionary
3
ACAD_GROUP
350
D
3
ACAD_MLINESTYLE
350
17
0
DICTIONARY
5
D
100
AcDbDictionary
0
DICTIONARY
5
1A
330
C
100
AcDbDictionary
0
DICTIONARY
5
17
100
AcDbDictionary
0
ENDSEC
0
EOF
