<?xml version="1.0" encoding="UTF-8" standalone="no"?>
<!-- Created with Inkscape (http://www.inkscape.org/) -->

<svg
   xmlns:dc="http://purl.org/dc/elements/1.1/"
   xmlns:cc="http://creativecommons.org/ns#"
   xmlns:rdf="http://www.w3.org/1999/02/22-rdf-syntax-ns#"
   xmlns:svg="http://www.w3.org/2000/svg"
   xmlns="http://www.w3.org/2000/svg"
   xmlns:sodipodi="http://sodipodi.sourceforge.net/DTD/sodipodi-0.dtd"
   xmlns:inkscape="http://www.inkscape.org/namespaces/inkscape"
   width="210mm"
   height="297mm"
   viewBox="0 0 744.09448819 1052.3622047"
   id="svg2"
   version="1.1"
   inkscape:version="0.91 r13725"
   sodipodi:docname="sled_plate.svg">
  <defs
     id="defs4">
    <marker
       style="overflow:visible"
       refY="0.0"
       refX="0.0"
       orient="auto"
       id="DistanceX">
      <path
         id="path3397"
         style="stroke:#000000; stroke-width:0.5"
         d="M 3,-3 L -3,3 M 0,-5 L  0,5" />
    </marker>
    <pattern
       y="0"
       x="0"
       width="8"
       patternUnits="userSpaceOnUse"
       id="Hatch"
       height="8">
      <path
         id="path3400"
         stroke-width="0.25"
         stroke="#000000"
         linecap="square"
         d="M8 4 l-4,4" />
      <path
         id="path3402"
         stroke-width="0.25"
         stroke="#000000"
         linecap="square"
         d="M6 2 l-4,4" />
      <path
         id="path3404"
         stroke-width="0.25"
         stroke="#000000"
         linecap="square"
         d="M4 0 l-4,4" />
    </pattern>
    <symbol
       id="*MODEL_SPACE" />
    <symbol
       id="*PAPER_SPACE" />
    <marker
       style="overflow:visible"
       refY="0.0"
       refX="0.0"
       orient="auto"
       id="DistanceX-9">
      <path
         id="path3884"
         style="stroke:#000000; stroke-width:0.5"
         d="M 3,-3 L -3,3 M 0,-5 L  0,5" />
    </marker>
    <pattern
       y="0"
       x="0"
       width="8"
       patternUnits="userSpaceOnUse"
       id="Hatch-6"
       height="8">
      <path
         id="path3887"
         stroke-width="0.25"
         stroke="#000000"
         linecap="square"
         d="M8 4 l-4,4" />
      <path
         id="path3889"
         stroke-width="0.25"
         stroke="#000000"
         linecap="square"
         d="M6 2 l-4,4" />
      <path
         id="path3891"
         stroke-width="0.25"
         stroke="#000000"
         linecap="square"
         d="M4 0 l-4,4" />
    </pattern>
    <symbol
       id="*MODEL_SPACE-6" />
    <symbol
       id="*PAPER_SPACE-4" />
    <marker
       style="overflow:visible"
       refY="0.0"
       refX="0.0"
       orient="auto"
       id="DistanceX-1">
      <path
         id="path4196"
         style="stroke:#000000; stroke-width:0.5"
         d="M 3,-3 L -3,3 M 0,-5 L  0,5" />
    </marker>
    <pattern
       y="0"
       x="0"
       width="8"
       patternUnits="userSpaceOnUse"
       id="Hatch-9"
       height="8">
      <path
         id="path4199"
         stroke-width="0.25"
         stroke="#000000"
         linecap="square"
         d="M8 4 l-4,4" />
      <path
         id="path4201"
         stroke-width="0.25"
         stroke="#000000"
         linecap="square"
         d="M6 2 l-4,4" />
      <path
         id="path4203"
         stroke-width="0.25"
         stroke="#000000"
         linecap="square"
         d="M4 0 l-4,4" />
    </pattern>
    <symbol
       id="*MODEL_SPACE-7" />
    <symbol
       id="*PAPER_SPACE-3" />
    <marker
       style="overflow:visible"
       refY="0.0"
       refX="0.0"
       orient="auto"
       id="DistanceX-0">
      <path
         id="path4528"
         style="stroke:#000000; stroke-width:0.5"
         d="M 3,-3 L -3,3 M 0,-5 L  0,5" />
    </marker>
    <pattern
       y="0"
       x="0"
       width="8"
       patternUnits="userSpaceOnUse"
       id="Hatch-2"
       height="8">
      <path
         id="path4531"
         stroke-width="0.25"
         stroke="#000000"
         linecap="square"
         d="M8 4 l-4,4" />
      <path
         id="path4533"
         stroke-width="0.25"
         stroke="#000000"
         linecap="square"
         d="M6 2 l-4,4" />
      <path
         id="path4535"
         stroke-width="0.25"
         stroke="#000000"
         linecap="square"
         d="M4 0 l-4,4" />
    </pattern>
    <symbol
       id="*MODEL_SPACE-3" />
    <symbol
       id="*PAPER_SPACE-8" />
  </defs>
  <sodipodi:namedview
     id="base"
     pagecolor="#ffffff"
     bordercolor="#666666"
     borderopacity="1.0"
     inkscape:pageopacity="0.0"
     inkscape:pageshadow="2"
     inkscape:zoom="0.98994949"
     inkscape:cx="20.329199"
     inkscape:cy="993.25607"
     inkscape:document-units="px"
     inkscape:current-layer="layer1"
     showgrid="false"
     inkscape:window-width="1920"
     inkscape:window-height="1151"
     inkscape:window-x="0"
     inkscape:window-y="1"
     inkscape:window-maximized="1" />
  <metadata
     id="metadata7">
    <rdf:RDF>
      <cc:Work
         rdf:about="">
        <dc:format>image/svg+xml</dc:format>
        <dc:type
           rdf:resource="http://purl.org/dc/dcmitype/StillImage" />
        <dc:title></dc:title>
      </cc:Work>
    </rdf:RDF>
  </metadata>
  <g
     inkscape:label="Layer 1"
     inkscape:groupmode="layer"
     id="layer1">
    <g
       id="g4858">
      <path
         id="path4541"
         style="fill:none;stroke:#ff0000"
         d="m 140.37545,224.64632 a 5.757875,5.757875 0 1 0 -11.51575,0 5.757875,5.757875 0 1 0 11.51575,0 z"
         inkscape:connector-curvature="0" />
      <path
         id="path4543"
         style="fill:none;stroke:#ff0000"
         d="m 420.89773,304.1472 a 5.757875,5.757875 0 1 0 -11.51575,0 5.757875,5.757875 0 1 0 11.51575,0 z"
         inkscape:connector-curvature="0" />
      <path
         id="path4545"
         style="fill:none;stroke:#ff0000"
         d="m 333.48078,58.1158 a 5.757874,5.757874 0 1 0 -11.51575,0 5.757874,5.757874 0 0 0 11.51575,0 z"
         inkscape:connector-curvature="0" />
      <path
         id="path4547"
         style="fill:none;stroke:#ff0000"
         d="m 290.95618,100.63057 a 5.757874,5.757874 0 1 0 -11.51575,0 5.757874,5.757874 0 0 0 11.51575,0 z"
         inkscape:connector-curvature="0" />
      <path
         id="path4549"
         style="fill:none;stroke:#ff0000"
         d="m 404.90021,246.18232 a 5.757874,5.757874 0 1 0 -11.51574,0 5.757874,5.757874 0 1 0 11.51574,0 z"
         inkscape:connector-curvature="0" />
      <path
         id="path4551"
         style="fill:none;stroke:#ff0000"
         d="m 140.36563,309.6857 a 5.757875,5.757875 0 1 0 -11.51575,0 5.757875,5.757875 0 1 0 11.51575,0 z"
         inkscape:connector-curvature="0" />
      <path
         id="path4553"
         style="fill:none;stroke:#ff0000"
         d="m 182.89022,267.1709 a 5.757874,5.757874 0 1 0 -11.51574,0 5.757874,5.757874 0 1 0 11.51574,0 z"
         inkscape:connector-curvature="0" />
      <path
         id="path4555"
         style="fill:none;stroke:#ff0000"
         d="m 478.8626,288.1497 a 5.757875,5.757875 0 1 0 -11.51575,0 5.757875,5.757875 0 1 0 11.51575,0 z"
         inkscape:connector-curvature="0" />
      <path
         id="path4557"
         style="fill:none;stroke:#ff0000"
         d="m 290.966,15.5912 a 5.757874,5.757874 0 1 0 -11.51575,0 5.757874,5.757874 0 0 0 11.51575,0 z"
         inkscape:connector-curvature="0" />
      <path
         id="path4559"
         style="fill:none;stroke:#ff0000"
         d="m 248.44141,58.10598 a 5.757874,5.757874 0 1 0 -11.51575,0 5.757874,5.757874 0 0 0 11.51575,0 z"
         inkscape:connector-curvature="0" />
      <path
         id="path4561"
         style="fill:none;stroke:#ff0000"
         d="m 462.86509,230.18481 a 5.757875,5.757875 0 1 0 -11.51575,0 5.757875,5.757875 0 1 0 11.51575,0 z"
         inkscape:connector-curvature="0" />
      <path
         id="path4563"
         style="fill:none;stroke:#ff0000"
         d="m 97.85086,267.1611 a 5.757875,5.757875 0 1 0 -11.51575,0 5.757875,5.757875 0 1 0 11.51575,0 z"
         inkscape:connector-curvature="0" />
      <path
         id="path4565"
         style="fill:none;stroke:#ff0000"
         d="m 249.34237,259.6516 a 5.314961,5.314961 0 1 0 -10.62992,0 5.314961,5.314961 0 1 0 10.62992,0 z"
         inkscape:connector-curvature="0" />
      <path
         id="path4567"
         style="fill:none;stroke:#ff0000"
         d="m 249.34237,342.333 a 5.314961,5.314961 0 1 0 -10.62992,0 5.314961,5.314961 0 1 0 10.62992,0 z"
         inkscape:connector-curvature="0" />
      <path
         id="path4569"
         style="fill:none;stroke:#ff0000"
         d="m 332.02375,259.6516 a 5.314961,5.314961 0 1 0 -10.62992,0 5.314961,5.314961 0 1 0 10.62992,0 z"
         inkscape:connector-curvature="0" />
      <path
         id="path4571"
         style="fill:none;stroke:#ff0000"
         d="m 332.02375,342.333 a 5.314961,5.314961 0 1 0 -10.62992,0 5.314961,5.314961 0 1 0 10.62992,0 z"
         inkscape:connector-curvature="0" />
      <path
         id="path4573"
         style="fill:none;stroke:#ff0000"
         d="m 207.18953,195.599 a 5.314961,5.314961 0 1 0 8.92685,5.77119"
         inkscape:connector-curvature="0" />
      <path
         id="path4575"
         style="fill:none;stroke:#ff0000"
         d="m 207.18953,195.599 11.54239,-17.85369"
         inkscape:connector-curvature="0" />
      <path
         id="path4577"
         style="fill:none;stroke:#ff0000"
         d="m 227.65877,183.5165 a 5.314961,5.314961 0 1 0 -8.92685,-5.77119"
         inkscape:connector-curvature="0" />
      <path
         id="path4579"
         style="fill:none;stroke:#ff0000"
         d="m 227.65877,183.5165 -11.54239,17.85369"
         inkscape:connector-curvature="0" />
      <path
         id="path4581"
         style="fill:none;stroke:#ff0000"
         d="m 396.26133,104.17388 a 6.2007875,6.2007875 0 1 0 -12.40157,0 6.2007875,6.2007875 0 1 0 12.40157,0 z"
         inkscape:connector-curvature="0" />
      <path
         id="path4583"
         style="fill:none;stroke:#ff0000"
         d="m 148.78589,58.11089 a 14.173228,14.173228 0 1 0 -28.34645,0 14.173228,14.173228 0 1 0 28.34645,0 z"
         inkscape:connector-curvature="0" />
      <path
         id="path4585"
         style="fill:none;stroke:#ff0000"
         d="m 185.99062,104.17388 a 5.314961,5.314961 0 1 0 -10.62992,0 5.314961,5.314961 0 1 0 10.62992,0 z"
         inkscape:connector-curvature="0" />
      <path
         id="path4587"
         style="fill:none;stroke:#ff0000"
         d="m 173.58904,150.23687 a 38.976378,38.976378 0 1 0 -77.95275,0 38.976378,38.976378 0 1 0 77.95275,0 z"
         inkscape:connector-curvature="0" />
      <path
         id="path4589"
         style="fill:none;stroke:#ff0000"
         d="m 301.31298,58.11089 a 15.944882,15.944882 0 1 0 -31.88976,0 15.944882,15.944882 0 0 0 31.88976,0 z"
         inkscape:connector-curvature="0" />
      <path
         id="path4591"
         style="fill:none;stroke:#ff0000"
         d="m 488.38731,104.17388 a 6.2007875,6.2007875 0 1 0 -12.40157,0 6.2007875,6.2007875 0 1 0 12.40157,0 z"
         inkscape:connector-curvature="0" />
      <path
         id="path4593"
         style="fill:none;stroke:#ff0000"
         d="m 93.86463,196.29986 a 5.314961,5.314961 0 1 0 -10.62992,0 5.314961,5.314961 0 1 0 10.62992,0 z"
         inkscape:connector-curvature="0" />
      <path
         id="path4595"
         style="fill:none;stroke:#ff0000"
         d="m 450.29676,58.11089 a 14.173228,14.173228 0 1 0 -28.34645,0 14.173228,14.173228 0 1 0 28.34645,0 z"
         inkscape:connector-curvature="0" />
      <path
         id="path4597"
         style="fill:none;stroke:#ff0000"
         d="m 93.86463,104.17388 a 5.314961,5.314961 0 1 0 -10.62992,0 5.314961,5.314961 0 1 0 10.62992,0 z"
         inkscape:connector-curvature="0" />
      <path
         id="path4599"
         style="fill:none;stroke:#ff0000"
         d="m 488.38731,196.29986 a 6.2007875,6.2007875 0 1 0 -12.40157,0 6.2007875,6.2007875 0 1 0 12.40157,0 z"
         inkscape:connector-curvature="0" />
      <path
         id="path4601"
         style="fill:none;stroke:#ff0000"
         d="m 299.54133,187.60648 a 14.173228,14.173228 0 1 0 -28.34646,0 14.173228,14.173228 0 0 0 28.34646,0 z"
         inkscape:connector-curvature="0" />
      <path
         id="path4603"
         style="fill:none;stroke:#ff0000"
         d="m 363.54667,195.599 a 5.314961,5.314961 0 0 1 -8.92685,5.77119 L 343.07744,183.5165 a 5.314961,5.314961 0 0 1 8.92684,-5.77119 l 11.54239,17.85369 z"
         inkscape:connector-curvature="0" />
      <path
         id="path4605"
         style="fill:none;stroke:#ff0000"
         d="m 185.99062,196.29986 a 5.314961,5.314961 0 1 0 -10.62992,0 5.314961,5.314961 0 1 0 10.62992,0 z"
         inkscape:connector-curvature="0" />
      <path
         id="path4607"
         style="fill:none;stroke:#ff0000"
         d="m 475.09991,150.23687 a 38.976378,38.976378 0 1 0 -77.95275,0 38.976378,38.976378 0 1 0 77.95275,0 z"
         inkscape:connector-curvature="0" />
      <path
         id="path4609"
         style="fill:none;stroke:#ff0000"
         d="m 396.26133,196.29986 a 6.2007875,6.2007875 0 1 0 -12.40157,0 6.2007875,6.2007875 0 1 0 12.40157,0 z"
         inkscape:connector-curvature="0" />
      <path
         id="path4611"
         style="fill:none;stroke:#ff0000"
         d="m 452.06842,267.166 a 15.944885,15.944885 0 1 0 -31.88977,0 15.944885,15.944885 0 0 0 31.88977,0 z"
         inkscape:connector-curvature="0" />
      <path
         id="path4613"
         style="fill:none;stroke:#ff0000"
         d="m 150.55755,267.166 a 15.944885,15.944885 0 1 0 -31.88977,0 15.944885,15.944885 0 0 0 31.88977,0 z"
         inkscape:connector-curvature="0" />
      <path
         id="path4615"
         style="fill:none;stroke:#000000"
         d="m 534.76795,225.39793 -56.36824,73.97997 a 53.149606,53.149606 0 0 1 -19.05666,15.5975 l -135.27576,65.6992 a 88.582677,88.582677 0 0 1 -77.39838,0 L 111.39315,314.9754 A 53.149606,53.149606 0 0 1 92.33649,299.3779 L 35.96825,225.39793 A 124.01575,124.01575 0 0 1 117.82156,27.36309 L 278.17191,5.4507 a 53.149606,53.149606 0 0 1 14.39238,0 l 160.35035,21.91239 a 124.01575,124.01575 0 0 1 81.85331,198.03484 z"
         inkscape:connector-curvature="0" />
    </g>
  </g>
</svg>
