0
SECTION
2
HEADER
9
$INSUNITS
70
4
9
$ACADVER
1
AC1014
9
$HANDSEED
5
FFFF
0
ENDSEC
0
SECTION
2
TABLES
0
TABLE
2
VPORT
5
8
100
AcDbSymbolTable
0
ENDTAB
0
TABLE
2
LTYPE
5
5
100
AcDbSymbolTable
0
LTYPE
5
14
100
AcDbSymbolTableRecord
100
AcDbLinetypeTableRecord
2
BYBLOCK
70
0
0
LTYPE
5
15
100
AcDbSymbolTableRecord
100
AcDbLinetypeTableRecord
2
BYLAYER
70
0
0
ENDTAB
0
TABLE
2
LAYER
5
2
100
AcDbSymbolTable
70
2
0
LAYER
5
50
100
AcDbSymbolTableRecord
100
AcDbLayerTableRecord
2
0
70
0
6
CONTINUOUS
0
ENDTAB
0
TABLE
2
STYLE
5
3
100
AcDbSymbolTable
70
1
0
STYLE
5
11
100
AcDbSymbolTableRecord
100
AcDbTextStyleTableRecord
2
STANDARD
70
0
0
ENDTAB
0
TABLE
2
VIEW
5
6
100
AcDbSymbolTable
70
0
0
ENDTAB
0
TABLE
2
UCS
5
7
100
AcDbSymbolTable
70
0
0
ENDTAB
0
TABLE
2
APPID
5
9
100
AcDbSymbolTable
70
2
0
APPID
5
12
100
AcDbSymbolTableRecord
100
AcDbRegAppTableRecord
2
ACAD
70
0
0
ENDTAB
0
TABLE
2
DIMSTYLE
5
A
100
AcDbSymbolTable
70
1
0
ENDTAB
0
TABLE
2
BLOCK_RECORD
5
1
100
AcDbSymbolTable
70
1
0
BLOCK_RECORD
5
1F
100
AcDbSymbolTableRecord
100
AcDbBlockTableRecord
2
*MODEL_SPACE
0
BLOCK_RECORD
5
1B
100
AcDbSymbolTableRecord
100
AcDbBlockTableRecord
2
*PAPER_SPACE
0
ENDTAB
0
ENDSEC
0
SECTION
2
BLOCKS
0
BLOCK
5
20
100
AcDbEntity
100
AcDbBlockBegin
2
*MODEL_SPACE
0
ENDBLK
5
21
100
AcDbEntity
100
AcDbBlockEnd
0
BLOCK
5
1C
100
AcDbEntity
100
AcDbBlockBegin
2
*PAPER_SPACE
0
ENDBLK
5
1D
100
AcDbEntity
100
AcDbBlockEnd
0
ENDSEC
0
SECTION
2
ENTITIES
0
CIRCLE
5
100
100
AcDbEntity
8
0
100
AcDbCircle
10
1.4038017018896018
20
-29.693164069245462
30
0
40
6.5000000000000036
0
LWPOLYLINE
5
101
100
AcDbEntity
8
0
100
AcDbPolyline
90
4
70
1
43
0.0
10
27.566752605791898
20
-43.835299692976392
10
15.545937325620589
20
-55.856114973147697
10
-10.617013578281707
20
-29.693164069245483
10
1.403801701889642
20
-17.672348789074125
0
CIRCLE
5
102
100
AcDbEntity
8
0
100
AcDbCircle
10
-1.4206632900731445e-14
20
-7.8825101267767802e-15
30
0
40
10.999999999999998
0
CIRCLE
5
103
100
AcDbEntity
8
0
100
AcDbCircle
10
-1.4206632900731445e-14
20
-7.8825101267767802e-15
30
0
40
10.499999999999998
0
CIRCLE
5
104
100
AcDbEntity
8
0
100
AcDbCircle
10
-1.4206632900731445e-14
20
-7.8825101267767802e-15
30
0
40
10.499999999999998
0
CIRCLE
5
105
100
AcDbEntity
8
0
100
AcDbCircle
10
-1.4206632900731445e-14
20
-7.8825101267767802e-15
30
0
40
10.999999999999998
0
CIRCLE
5
106
100
AcDbEntity
8
0
100
AcDbCircle
10
1.4038017018896001
20
-29.693164069245462
30
0
40
11.999999999999991
0
CIRCLE
5
107
100
AcDbEntity
8
0
100
AcDbCircle
10
29.68807294935154
20
-1.4088928217832506
30
0
40
11.999999999999989
0
LINE
5
108
100
AcDbEntity
8
0
100
AcDbLine
10
0
20
0
30
0
11
56.568542494923804
21
-56.568542494923797
31
0
0
LINE
5
109
100
AcDbEntity
8
0
100
AcDbLine
10
0
20
0
30
0
11
60
21
0
31
0
0
LINE
5
110
100
AcDbEntity
8
0
100
AcDbLine
10
-10.625184089179761
20
2.8470094961277153
30
5.3071197428518009e-31
11
-26.415593663188201
21
-56.083601306393874
31
-3.4519015286591341e-31
0
LINE
5
111
100
AcDbEntity
8
0
100
AcDbLine
10
-10.625184089179761
20
2.8470094961277153
30
5.3071197428518009e-31
11
59.235882355985325
21
2.8470094961277153
31
5.3071197428518009e-31
0
LINE
5
112
100
AcDbEntity
8
0
100
AcDbLine
10
-2.8470094961277392
20
10.625184089179738
30
-2.3169384816154922e-31
11
56.083601306393817
21
26.41559366318819
31
-2.3169384816154922e-31
0
ARC
5
113
100
AcDbEntity
8
0
100
AcDbCircle
10
0.88981239066978191
20
-0.88981239066980855
30
-5.2703690883927873e-31
40
70.41641888923985
100
AcDbArc
50
-106.98224621451267
51
16.982246214512685
0
LINE
5
114
100
AcDbEntity
8
0
100
AcDbLine
10
-28.742517246356194
20
-64.76779834410705
30
-4.6640325017883617e-31
11
-16.742517246356201
21
-59.172106446247092
31
-7.6562820336056934e-32
0
CIRCLE
5
115
100
AcDbEntity
8
0
100
AcDbCircle
10
-16.742517246356201
20
-59.172106446247092
30
-7.6562820336056934e-32
40
3.9999999999999982
0
LINE
5
116
100
AcDbEntity
8
0
100
AcDbLine
10
64.767798344107035
20
28.742517246356197
30
-2.3169384816154922e-31
11
59.696379203218648
21
17.866823801916393
31
-2.3169384816154922e-31
0
CIRCLE
5
117
100
AcDbEntity
8
0
100
AcDbCircle
10
59.696379203218648
20
17.866823801916393
30
-2.3169384816154922e-31
40
4.0000000000000018
0
LINE
5
118
100
AcDbEntity
8
0
100
AcDbLine
10
50.681739694123785
20
-50.681739694123792
30
-9.4598249825383099e-33
11
43.610671882258302
21
-43.610671882258309
31
-9.4598249825383099e-33
0
CIRCLE
5
119
100
AcDbEntity
8
0
100
AcDbCircle
10
43.610671882258302
20
-43.610671882258309
30
-9.4598249825383099e-33
40
4.0000000000000036
0
ARC
5
120
100
AcDbEntity
8
0
100
AcDbCircle
10
-16.756335400297516
20
-58.671791757419072
30
-1.5578154699841311e-31
40
10
100
AcDbArc
50
165.00000000000006
51
253.01775378548726
0
ARC
5
121
100
AcDbEntity
8
0
100
AcDbCircle
10
58.671791757419015
20
16.75633540029747
30
-1.3708613779183987e-31
40
10.000000000000034
100
AcDbArc
50
16.982246214512902
51
104.9999999999999
0
LINE
5
122
100
AcDbEntity
8
0
100
AcDbLine
10
44.890868744862296
20
-28.632503897465341
30
0
11
56.911684025033615
21
-16.611688617294053
31
3.4512664603419266e-30
0
LINE
5
123
100
AcDbEntity
8
0
100
AcDbLine
10
43.830208573082565
20
-27.571843725685412
30
0
11
42.769548401302735
21
-28.632503897465217
31
-6.8632564912383137e-16
0
LINE
5
124
100
AcDbEntity
8
0
100
AcDbLine
10
44.890868744862388
20
-28.632503897465217
30
0
11
43.830208573082565
21
-27.571843725685412
31
-4.8718726139713894e-17
0
LINE
5
125
100
AcDbEntity
8
0
100
AcDbLine
10
42.769548401302735
20
-28.632503897465224
30
0
11
16.606597497400436
21
-2.4695529935630312
31
-6.9025329206838533e-30
0
ARC
5
126
100
AcDbEntity
8
0
100
AcDbCircle
10
55.851023853253878
20
-15.551028445514049
30
0
40
1.5000000000000706
100
AcDbArc
50
-45.000000000007176
51
45
0
LINE
5
127
100
AcDbEntity
8
0
100
AcDbLine
10
30.748733121131423
20
11.67258263016797
30
0
11
56.911684025033715
21
-14.490368273734212
31
5.9164567891576761e-31
0
LWPOLYLINE
5
128
100
AcDbEntity
8
0
100
AcDbPolyline
90
3
70
1
43
0.0
10
28.627412777571799
20
11.672582630167984
42
-0.4142135623730957
10
30.748733121131437
20
11.672582630167984
10
29.688072949351614
20
10.611922458388168
0
LINE
5
129
100
AcDbEntity
8
0
100
AcDbLine
10
28.627412777571774
20
11.6725826301679
30
0
11
16.606597497400418
21
-0.34823265000342163
31
4.9303806576313238e-30
0
ARC
5
130
100
AcDbEntity
8
0
100
AcDbCircle
10
17.667257669180259
20
-1.4088928217831844
30
0
40
1.4999999999999745
100
AcDbArc
50
135.0000000000021
51
225.00000000000065
0
CIRCLE
5
131
100
AcDbEntity
8
0
100
AcDbCircle
10
-7.2765680711063642e-15
20
-1.871094407129277e-15
30
0
40
3.9999999999999991
0
LINE
5
132
100
AcDbEntity
8
0
100
AcDbLine
10
56.911684025033694
20
-14.490368273734216
30
0
11
62.2149848839328
21
-19.793669132633315
31
-9.8607613152626476e-31
0
LINE
5
133
100
AcDbEntity
8
0
100
AcDbLine
10
44.890868744862296
20
-28.632503897465341
30
0
11
43.830208573082487
21
-29.693164069245157
31
-1.1093356479670452e-31
0
LINE
5
134
100
AcDbEntity
8
0
100
AcDbLine
10
43.830208573082487
20
-29.693164069245157
30
-1.1093356479670452e-31
11
48.072849260201743
21
-33.935804756364448
31
0
0
LINE
5
135
100
AcDbEntity
8
0
100
AcDbLine
10
48.072849260201743
20
-33.935804756364448
30
0
11
62.214984883932701
21
-19.793669132633521
31
0
0
LINE
5
136
100
AcDbEntity
8
0
100
AcDbLine
10
44.890868744862303
20
-28.632503897465348
30
0
11
56.911684025033622
21
-16.611688617294057
31
0
0
LINE
5
137
100
AcDbEntity
8
0
100
AcDbLine
10
42.769548401302757
20
-28.632503897465188
30
0
11
48.072849260201863
21
-33.93580475636427
31
-1.4791141972893971e-30
0
LINE
5
138
100
AcDbEntity
8
0
100
AcDbLine
10
57.972344196813452
20
-15.551028445514243
30
-3.8455262593708517e-15
11
56.911684025033622
21
-16.611688617294057
31
0
0
LINE
5
139
100
AcDbEntity
8
0
100
AcDbLine
10
57.972344196813452
20
-15.551028445514243
30
-3.8455262593708517e-15
11
62.214984883932701
21
-19.793669132633521
31
0
0
CIRCLE
5
140
100
AcDbEntity
8
0
100
AcDbCircle
10
49.487062822574963
20
-29.693164069245007
30
0
40
1.9999999999999925
0
CIRCLE
5
141
100
AcDbEntity
8
0
100
AcDbCircle
10
57.972344196813516
20
-21.207882695006436
30
0
40
2.0000000000000102
0
CIRCLE
5
142
100
AcDbEntity
8
0
100
AcDbCircle
10
57.972344196813395
20
-21.207882695006607
30
0
40
2.0000000000000151
0
CIRCLE
5
143
100
AcDbEntity
8
0
100
AcDbCircle
10
49.487062822574828
20
-29.69316406924516
30
0
40
2.0000000000000178
0
LWPOLYLINE
5
144
100
AcDbEntity
8
0
100
AcDbPolyline
90
8
70
1
43
0.0
10
2.4644618736694524
20
-16.61168861729432
10
28.627412777571696
20
-42.774639521196562
42
-0.41421356237309259
10
28.627412777571696
20
-44.8959598647562
10
16.606597497400394
20
-56.91677514492752
42
-0.41421356237309509
10
14.485277153840716
20
-56.91677514492752
10
-11.677673750061521
20
-30.753824241025313
42
-0.41421356237309442
10
-11.677673750061517
20
-28.632503897465675
10
0.34314153010982562
20
-16.611688617294316
42
-0.41421356237309437
0
CIRCLE
5
145
100
AcDbEntity
8
0
100
AcDbCircle
10
15.54593732562064
20
4.2479614277092361
30
0
40
1.9999999999999925
0
CIRCLE
5
146
100
AcDbEntity
8
0
100
AcDbCircle
10
24.031218699859199
20
12.733242801947807
30
0
40
2.0000000000000102
0
CIRCLE
5
147
100
AcDbEntity
8
0
100
AcDbCircle
10
24.031218699859174
20
12.733242801947718
30
0
40
1.9867714612852452
0
CIRCLE
5
148
100
AcDbEntity
8
0
100
AcDbCircle
10
15.545937325620603
20
4.2479614277091686
30
0
40
2.0000000000000107
0
LINE
5
149
100
AcDbEntity
8
0
100
AcDbLine
10
11.303296638501365
20
2.8337478653361607
30
0
11
16.606597497400454
21
-2.4695529935629961
31
1.2325951644078309e-30
0
LINE
5
150
100
AcDbEntity
8
0
100
AcDbLine
10
28.627412777571777
20
11.672582630167909
30
0
11
29.688072949351614
21
12.73324280194772
31
-5.9164567891576012e-30
0
LINE
5
151
100
AcDbEntity
8
0
100
AcDbLine
10
29.688072949351614
20
12.73324280194772
30
-5.9164567891576012e-30
11
25.445432262232266
21
16.975883489066995
31
0
0
LINE
5
152
100
AcDbEntity
8
0
100
AcDbLine
10
25.445432262232266
20
16.975883489066995
30
0
11
11.30329663850131
21
2.8337478653360737
31
0
0
LINE
5
153
100
AcDbEntity
8
0
100
AcDbLine
10
30.748733121131426
20
11.672582630167987
30
0
11
25.445432262232298
21
16.975883489067108
31
0
0
LINE
5
154
100
AcDbEntity
8
0
100
AcDbLine
10
16.606597497400422
20
-0.34823265000342929
30
-3.6977854932234961e-32
11
15.545937325620612
21
-1.408892821783239
31
1.4791141972893873e-31
0
LINE
5
155
100
AcDbEntity
8
0
100
AcDbLine
10
15.545937325620612
20
-1.408892821783239
30
1.4791141972893873e-31
11
11.30329663850131
21
2.8337478653360737
31
0
0
LINE
5
156
100
AcDbEntity
8
0
100
AcDbLine
10
16.606597497400422
20
-0.34823265000342929
30
-3.6977854932234961e-32
11
28.627412777571777
21
11.672582630167909
31
0
0
CIRCLE
5
157
100
AcDbEntity
8
0
100
AcDbCircle
10
29.688072949351518
20
-49.492153942468747
30
0
40
1.9999999999999925
0
CIRCLE
5
158
100
AcDbEntity
8
0
100
AcDbCircle
10
21.202791575112947
20
-57.977435316707322
30
0
40
2.0000000000000102
0
CIRCLE
5
159
100
AcDbEntity
8
0
100
AcDbCircle
10
-12.73833392184137
20
-24.036309819753086
30
0
40
2.0000000000000102
0
CIRCLE
5
160
100
AcDbEntity
8
0
100
AcDbCircle
10
-4.2530525476028167
20
-15.551028445514518
30
0
40
1.9999999999999925
0
CIRCLE
5
161
100
AcDbEntity
8
0
100
AcDbCircle
10
29.688072949351518
20
-49.492153942468747
30
0
40
1.9868757011343972
0
CIRCLE
5
162
100
AcDbEntity
8
0
100
AcDbCircle
10
21.202791575112947
20
-57.977435316707322
30
0
40
2.000000000000016
0
CIRCLE
5
163
100
AcDbEntity
8
0
100
AcDbCircle
10
-12.73833392184137
20
-24.036309819753086
30
0
40
1.974952506397579
0
CIRCLE
5
164
100
AcDbEntity
8
0
100
AcDbCircle
10
-4.2530525476028167
20
-15.551028445514518
30
0
40
1.9999999999999951
0
ENDSEC
0
SECTION
2
OBJECTS
0
DICTIONARY
5
C
100
AcDbDictionary
3
ACAD_GROUP
350
D
3
ACAD_MLINESTYLE
350
17
0
DICTIONARY
5
D
100
AcDbDictionary
0
DICTIONARY
5
1A
330
C
100
AcDbDictionary
0
DICTIONARY
5
17
100
AcDbDictionary
0
ENDSEC
0
EOF
